<?xml version="1.0" encoding="utf-8"?>
<svg version="1.1" xmlns="http://www.w3.org/2000/svg" xmlns:xlink="http://www.w3.org/1999/xlink" fill="none" x="0" y="0" width="1020" height="400" viewbox = "0 0 1020 400">

	<g id="Nha4" transform="translate(360,150) scale(0.5,0.5)">
		<rect x="13" y="2" width="155" height="10" fill="#ea5149" />
		<rect x="23" y="12" width="135" height="124" fill="#ffe570"/>
		<g id="Nha4_CuaSo_Day1">
			<g id="Nha4_CuaSo">
				<rect x="36" y="25" width="23" height="33" fill="#456f85" />
				<line x1="48" y1="23" x2="48" y2="59" stroke="white" stroke-width="1"/>
				<rect x="35" y="58" width="25" height="3" fill="white" />
				<path d="M33,21 h29 l-3,4 h-23" fill="#e98063"/>
			</g>
			<use xlink:href="#Nha4_CuaSo" x="42" />
			<use xlink:href="#Nha4_CuaSo" x="84" />
		</g>
		<use xlink:href="#Nha4_CuaSo_Day1" y="67" />
		<rect x="21" y="73" width="138" height="4" fill="#d6bf5f" />
		<rect x="21" y="69" width="138" height="4" fill="white" />
		<rect x="12" y="160" width="143" height="124" fill="#24475a" />
		
		<rect x="9" y="160" width="18" height="124" fill="#ff6661" />
		<rect x="153" y="160" width="18" height="124" fill="#ff6661" />
		
		<path d="M1,170 v-12 c0 -5, 5 -22, 22 -22 h135 c17 0, 22 17, 22 22 v12 h-179" fill="red"/>
		<rect x="1" y="157" width="179" height="4" fill="#eb7573" />
		
		<rect x="70" y="184" width="40" height="46" stroke="#456f85" stroke-width="4" fill="#ffe570" />
		<rect x="45" y="184" width="3" height="44" fill="#456f85" />
		<rect x="133" y="184" width="3" height="44" fill="#456f85" />
		<rect x="89" y="184" width="2" height="44" fill="#456f85" />
		<rect x="40" y="180" width="100" height="6" fill="#456f85" />
	</g>
	
	<g id="Nha2" transform="translate(250,170) scale(0.6,0.6)">
		<path fill="#edd0a4" d="M112,4 l75,32 v20 h-151 v-20"/>
		<rect fill="#996146" x="20" y="64" width="180" height="60"/>
		<g id="Nha2_CotNha">
			<rect fill="#edd0a4" x="16" y="64" width="20" height="63" />
			<rect id="Nha2_CotNha_Gach" fill="#cbb18c" x="16" y="74" width="20" height="5" style="opacity:0.7;"/>
			<use xlink:href="#Nha2_CotNha_Gach" y="15"/>
			<use xlink:href="#Nha2_CotNha_Gach" y="30"/>
		</g>
		<use xlink:href="#Nha2_CotNha" x="169"/>
		<rect fill="#c88f64" x="12" y="124" width="200" height="27"/>
		<path fill="#c54b46" d="M89,152 v-34 a20,20 0,0,1 45,0 v34" stroke="#c8a784" stroke-width="3" />
		<line x1="89" y1="116" x2="134" y2="116" stroke="#c8a784" stroke-width="3"/>
		<line x1="111" y1="116" x2="111" y2="156" stroke="#c8a784" stroke-width="3"/>
		<g id="Nha2_TruTron">
			<path fill="#eccfa3" d="M45.5,65 h19 l1.5,6 h-7 l5,73 h4 v8 h-26 v-8 h4 l5,-73 h-7" />
			<rect fill="#c7a985" x="48" y="71" width="14" height="4" />
			<rect fill="#c7a985" x="42" y="142" width="26" height="5" />
		</g>
		<use xlink:href="#Nha2_TruTron" x="113"/>
		<rect fill="#cbb18c" x="29" y="36" width="165" rx="3" ry="3" height="6" />
		<rect fill="#ccb28d" x="16" y="53" width="190" height="12" />
		<rect fill="#ccb28d" x="8" y="151" width="210" height="13" />
		<rect fill="#edd0a4" x="0" y="162" width="233" height="13" />
	</g>
	
	<g id="Nha1" transform="translate(90,149) scale(0.5,0.5)">
		<g id="Nha1_NhaBe">
			<rect id="Nha1_NhaBe_Tuong" x="6" y="88" width="86" height="140" fill="#6ab3a0" stroke="none"/>
			<rect id="Nha1_MaiNhaBe" x="2" y="76" width="90" height="12" fill="#498786" stroke="none"/>
			<rect id="Nha1_NhaBe_CuaSo" x="18" y="97" width="62" height="20" fill="white" stroke="#4e8f8b" rx="2" ry="2" stroke-width="2"/>
			<use xlink:href="#Nha1_NhaBe_CuaSo" y="34"/>
			<use xlink:href="#Nha1_NhaBe_CuaSo" y="68"/>
			<use xlink:href="#Nha1_NhaBe_CuaSo" y="100"/>
		</g>
		<use xlink:href="#Nha1_NhaBe" transform="translate(340,0) scale(-1,1)"/>
		<g id="Nha1_NhaLon">
			<rect x="92" y="6" width="156" height="223" fill="#94dbc9" stroke="none"/>
			<rect x="83" y="6" width="173" height="12" fill="#498786" stroke="none"/>
			<g id="Nha1_NhaLon_CuaSo_Day1">
				<g id="Nha1_NhaLon_CuaSo">
					<rect x="104.5" y="36" width="24" height="35" fill="white" stroke="#4e8f8b" rx="2" ry="2" stroke-width="2"/>
					<line x1="104.5" y1="54" x2="129" y2="54" stroke="#4e8f8b" stroke-width="2"/>
				</g>
				<use xlink:href="#Nha1_NhaLon_CuaSo" y="48"/>
				<use xlink:href="#Nha1_NhaLon_CuaSo" y="95"/>
			</g>
			<use xlink:href="#Nha1_NhaLon_CuaSo_Day1" x="36"/>
			<use xlink:href="#Nha1_NhaLon_CuaSo_Day1" x="72"/>
			<use xlink:href="#Nha1_NhaLon_CuaSo_Day1" x="107"/>
			<g id="Nha1_NhaLon_CuaChinh">
				<rect x="153" y="186" width="34" height="45" fill="white" stroke="#4e8f8b" rx="2" ry="2" stroke-width="2"/>
				<line x1="170" y1="187" x2="170" y2="230" stroke="#4e8f8b" stroke-width="2"/>
			</g>
			<rect x="0" y="227" width="340" height="45" fill="#d4dedf" stroke="none" rx="2" ry="2" stroke-width="2"/>
		</g>
	</g>
	
	<g id="Nha3" transform="translate(590,178) scale(0.5,0.5)">
		<rect fill="#f9a825" x="0" y="14" width="110" height="11"/>
		<rect fill="#8c6e63" x="0" y="24" width="110" height="149"/>
		<rect fill="#f9a825" x="20" y="1" width="70" height="13"/>
		
		<rect id="Nha3_CuaSo" fill="white" x="15" y="91" width="16" height="20"/>
		<use xlink:href="#Nha3_CuaSo" x="21" />
		<use xlink:href="#Nha3_CuaSo" x="43" />
		<use xlink:href="#Nha3_CuaSo" x="64" />
		
		<use xlink:href="#Nha3_CuaSo" y="28" />
		<use xlink:href="#Nha3_CuaSo" y="28" x="21" />
		<use xlink:href="#Nha3_CuaSo" y="28" x="43" />
		<use xlink:href="#Nha3_CuaSo" y="28" x="64" />
		
		<rect id="Nha3_CuaSo_gach" fill="white" x="15" y="58" width="80" height="5" rx="3" ry="3"/>
		<use xlink:href="#Nha3_CuaSo_gach" y="21" />
		
		<rect id="Nha3_CuaSo_Den" fill="#6d4d42" x="16" y="67" width="17" height="8"/>
		<use xlink:href="#Nha3_CuaSo_Den" x="20" />
		<use xlink:href="#Nha3_CuaSo_Den" x="40" />
		<use xlink:href="#Nha3_CuaSo_Den" x="60" />
		
		<path id="Nha3_CuaSo_Trang" fill="white" d="M28,52 v-14 a6,6 0,0,1 12,0 v14"/>
		<use xlink:href="#Nha3_CuaSo_Trang" x="15" />
		<use xlink:href="#Nha3_CuaSo_Trang" x="30" />
		<use xlink:href="#Nha3_CuaSo_Trang" x="45" />
		
		<path id="Nha3_CuaSo_Trang" fill="rgba(0,0,0,0.2)" d="M15,172 v-14 a6,6 0,0,1 20,0 v14"/>
	</g>
	
	<g id="Nha5" transform="translate(437,166) scale(0.5,0.5)">
		<path fill="#eb4e47" d="M148,15 l14,-2 l-5,10.5 h-5"/>
		<path fill="#fa7167" d="M134,14 c10 -3, 10 -3,18 0 v10 c-3 -2, -5 -3,-18 -2"/>
		<rect x="133.5" y="10" fill="#8f5e5a" width="3" height="85"/>
		<circle cx="135" cy="8" r="3" fill="#ea5149"/>
		
		<rect x="3" y="112" fill="#e8b393" width="263" height="85"/>
		<rect x="3" y="112" fill="rgba(255,255,255,0.2)" width="263" height="5"/>
		<g id="Nha5_CuaSoTrai">
			<g id="Nha5_CuaSo">
				<rect x="50" y="135" fill="#b3f2f7" width="26" height="20" rx="1" ry="1" stroke="#e96558" stroke-width="2.5"/>
				<line x1="63" y1="135" x2="63" y2="155" fill="#b3f2f7" stroke="#e96558" stroke-width="2.5"/>
			</g>
			<use xlink:href="#Nha5_CuaSo" x="-33" />
			<use xlink:href="#Nha5_CuaSo" x="-33" y="27"/>
			<use xlink:href="#Nha5_CuaSo" y="27" />
		</g>
		
		<use xlink:href="#Nha5_CuaSoTrai" x="177" />
		
		<path fill="#ec4f48" d="M0,112 l25,-28 h220 l25,28"/>
		<rect x="108" y="60" fill="white" width="54" height="45"/>
		<path fill="#ec4f48" d="M135,29 l26,29 h4 v5 l-60,0 v-5 h4"/>
		<path fill="#fad7c3" d="M76,130 l59,-50 l59,50 h-7 v67 h-104 v-67 "/>
		<path fill="#eb5149" d="M76,130 l59,-50 l59,50 h-7 l-52,-45 l-52,45"/>
		
		<path fill="#996146"  stroke="#ec6359" stroke-width="3" d="M113,197 v-40 a15,15 0,0,1 45,0 v40"/>
		<line x1="113" y1="160" x2="158" y2="160" stroke="#e84f47" stroke-width="3"/>
		<line x1="136" y1="160" x2="136" y2="196" stroke="#e84f47" stroke-width="3"/>
		<path fill="none"  stroke="#ec6359" stroke-width="3" d="M113,197 v-40 a15,15 0,0,1 45,0 v40"/>
		
		<circle cx="135" cy="112" r="12" fill="none" stroke="#ea5149" stroke-width="2"/>
		
		<circle cx="135" cy="112" r="1" fill="#ea5149" stroke="none" />
		<rect x="134.5" y="102" width="1" height="2" fill="#ea5149" stroke="none" />
		<rect x="134.5" y="120" width="1" height="2" fill="#ea5149" stroke="none" />
		
		<rect x="143" y="111.5" width="2" height="1" fill="#ea5149" stroke="none" />
		<rect x="125" y="111.5" width="2" height="1" fill="#ea5149" stroke="none" />
		
		<rect x="128" y="111" width="7" height="2" fill="#ea5149" stroke="none" transform="rotate(30 135,111)"/>
		<rect x="134.5" y="102" width="1.5" height="10" fill="#ea5149" stroke="none" />
	</g>
	
	
	<g id="Nha6" transform="translate(655,70) scale(0.7,0.7)">
		<rect fill="#27a69b" x="18" y="0" width="84" height="40"/>
		<rect fill="#90a4ad" x="0" y="38" width="120" height="248"/>
		<text fill="white" font-size="23" x="25" y="30">HOTEL</text>
		
		<rect id="Nha6_CuaSo" fill="#f9a823" x="15" y="59" width="11" height="11"/>
		<use xlink:href="#Nha6_CuaSo" x="29"/>
		<use xlink:href="#Nha6_CuaSo" x="14" y="18"/>
		<use xlink:href="#Nha6_CuaSo" x="57" y="18"/>
		
		<use xlink:href="#Nha6_CuaSo" x="14" y="91"/>
		<use xlink:href="#Nha6_CuaSo" x="43" y="91"/>
		
		<rect id="Nha6_CuaSo_Trang" fill="white" x="29" y="59" width="11" height="11"/>
		<use xlink:href="#Nha6_CuaSo_Trang" x="29"/>
		<use xlink:href="#Nha6_CuaSo_Trang" x="43"/>
		<use xlink:href="#Nha6_CuaSo_Trang" x="57"/>
		
		<use xlink:href="#Nha6_CuaSo_Trang" y="18" x="-14"/>
		<use xlink:href="#Nha6_CuaSo_Trang" y="18" x="29"/>
		<use xlink:href="#Nha6_CuaSo_Trang" y="18" x="14"/>
		<use xlink:href="#Nha6_CuaSo_Trang" y="18" x="57"/>
		
		<use xlink:href="#Nha6_CuaSo_Trang" y="91" x="-14"/>
		<use xlink:href="#Nha6_CuaSo_Trang" y="91" x="43"/>
		<use xlink:href="#Nha6_CuaSo_Trang" y="91" x="14"/>
		<use xlink:href="#Nha6_CuaSo_Trang" y="91" x="57"/>
		
		<rect x="21" y ="182" width="75" height="10" fill="white" />
		<rect x="21" y ="200" width="75" height="10" fill="white" />
		<rect x="21" y ="218" width="75" height="10" fill="white" />
		
		<rect x="15" y ="100" width="4" height="40" fill="white" />
		<rect x="25" y ="100" width="4" height="40" fill="white" />
		<rect x="35" y ="100" width="4" height="40" fill="white" />
		<rect x="45" y ="100" width="4" height="40" fill="white" />
		<rect x="55" y ="100" width="4" height="40" fill="white" />
		<rect x="65" y ="100" width="4" height="40" fill="white" />
		<rect x="75" y ="100" width="4" height="40" fill="white" />
		<rect x="84" y ="100" width="4" height="40" fill="white" />
		<rect x="93" y ="100" width="4" height="40" fill="white" />
		
		<path fill="white" d="M39,285 v-22 a18,18 0,0,1 39,0 v22" />
	</g>
	
	<g id="Nha7" transform="translate(730,144) scale(0.7,0.7)">
		<rect fill="#6d4d42" x="17" y="2" width="100" height="9" rx="1" ry="1"/>
		<rect fill="#ffa727" x="17" y="10" width="100" height="103"/>
		<rect fill="#6d4d42" x="0" y="111" width="140" height="9" />
		<rect fill="#ffa727" x="7" y="120" width="123" height="68"/>
		
		<g id="Nha7_CuaSo_Hang1">
			<g id="Nha7_CuaSo">
				<rect fill="white" x="28" y="18" width="12" height="15" rx="1" ry="1" style="opacity:0.8;"/>
				<rect fill="#6d4d42" x="26" y="32" width="16" height="3" rx="1" ry="1" style="opacity:0.6;"/>
			</g>
			<use xlink:href="#Nha7_CuaSo" x="22"/>
			<use xlink:href="#Nha7_CuaSo" x="44"/>
			<use xlink:href="#Nha7_CuaSo" x="66"/>
		</g>
		<use xlink:href="#Nha7_CuaSo_Hang1" y="22"/>
		<use xlink:href="#Nha7_CuaSo_Hang1" y="46"/>
		<use xlink:href="#Nha7_CuaSo_Hang1" y="68"/>
		
		<rect fill="white" x="103" y="129" width="18" height="8" rx="1" ry="1" style="opacity:0.8;"/>
		<rect fill="#6d4d42" x="103" y="136" width="18" height="4" style="opacity:0.6;"/>
		<text fill="white" font-size="20" x="40" y="140">BANK </text>
		<path fill="white" d="M42,175 a18,18 0,0,1 49,0" />
	</g>
	
	<g id="Nha8" transform="translate(30,223) scale(0.4,0.4)">
		<rect fill="#707da7" x="0" y="0" width="154" height="100"/>
		<rect fill="#d2d1d1" x="0" y="9" width="154" height="67"/>  
		<rect fill="white" x="12" y="69" width="115" height="6" rx="1" ry="1" stroke="none" />
		
		<rect fill="#3a4056" x="18" y="39" width="115" height="30" stroke="#ffc748" stroke-width="2"/>
		<rect fill="#3a4056" x="56" y="39" width="38" height="62" stroke="#ffc748" stroke-width="7"/> 
		<circle cx="94" cy="68" r="1.5" fill="#a99a80"/>
		<path stroke-width="2" stroke="rgba(255,255,255,0.1)" d="M24,65 L40,45"/>
		<g id="Nha8_MaiHien">
			<path stroke="none" fill="#fe4d53" d="M140,17 v29 l-5,3 l-5,-3v-29"/>
			<path stroke="none" fill="white" d="M130,17 v29 l-5,3 l-5,-3v-29"/>
		</g>
		<use xlink:href="#Nha8_MaiHien" x="-20"/>
		<use xlink:href="#Nha8_MaiHien" x="-40"/>
		<use xlink:href="#Nha8_MaiHien" x="-60"/>
		<use xlink:href="#Nha8_MaiHien" x="-80"/>
		<use xlink:href="#Nha8_MaiHien" x="-100"/>
		<path stroke="none" fill="#fe4d53" d="M20,17 v29 l-5,3 l-5,-3v-29"/>
		<rect stroke="white" fill="red" x="125" y="56" width="25" height="23" rx="1" ry="1"/>
		<circle stroke="none" fill="white" cx="137.5" cy="67.5" r="6"/>
	</g>
	
	<g id="Nha9" transform="translate(835,150) scale(0.8,0.8)">
		<path fill="#6d4c41" d="M7,28 h201 l-10,12 h-180"/>
		<rect fill="#8d6e63" x="0" y="0" width="218" height="29"/>
		<text font-size="20" fill="#6d4c41" x="25" y="20">SUPER MARKET</text>
		<rect fill="#8d6e63" x="17" y="40" width="182" height="105"/>
		<g id="Nha9_ThongGio_Hang1">
			<rect id="Nha9_ThongGio" x="29" y="49" fill="white" width="72" height="7.5" rx="1" ry="1"/>
			<use xlink:href="#Nha9_ThongGio" x="87" />
		</g>
		<use xlink:href="#Nha9_ThongGio_Hang1" y="13" />
		<use xlink:href="#Nha9_ThongGio_Hang1" y="26" />
		
		<rect x="84" y="101" fill="#ffa726" width="50" height="40"/>
		
		<g transform="translate(43,67) scale(0.7,0.4)">
			<g id="Nha8_MaiHien">
				<path stroke="none" fill="#fe4d53" d="M140,67 v29 l-5,3 l-5,-3v-29"/>
				<path stroke="none" fill="white" d="M130,67 v29 l-5,3 l-5,-3v-29"/>
			</g>
			<use xlink:href="#Nha8_MaiHien" y="50" x="-20"/>
			<use xlink:href="#Nha8_MaiHien" y="50" x="-40"/>
			<use xlink:href="#Nha8_MaiHien" y="50" x="-60"/>
			<path stroke="none" fill="#fe4d53" d="M60,67 v29 l-5,3 l-5,-3v-29"/>
		</g>
		
		<rect id="Nha9_ThongGio2" x="29" y="89" fill="white" width="12" height="33" rx="1" ry="1"/>
		<use xlink:href="#Nha9_ThongGio2" x="18" />
		<use xlink:href="#Nha9_ThongGio2" x="128" />
		<use xlink:href="#Nha9_ThongGio2" x="146" />
	</g>
	<g id="Cay1" transform="translate(15,217) scale(0.5,0.5)">
		<rect fill="#a18670" stroke="none" x="37" y="57" width="5" height="33"/>
		<rect fill="#95a5a6" stroke="none" x="32" y="87" width="15" height="10"/>
		
		<path fill="#22a300" d="M10,40 a9,9 0,0,1 15,-22 a9,9 0,0,1 27,0 a9,9 0,0,1 17,20 a9,9 0,0,1 -15,18 a20,20 0,0,1 -27,2 a9,9 0,0,1 -20,-15"/>
	</g>
	
	<g id="Cay2" transform="translate(119,225) scale(0.4,0.4)">
		<rect fill="#a18670" stroke="none" x="37" y="57" width="5" height="33"/>
		<rect fill="#95a5a6" stroke="none" x="32" y="87" width="15" height="10"/>
		
		<path fill="#22a300" d="M10,40 a9,9 0,0,1 15,-22 a9,9 0,0,1 27,0 a9,9 0,0,1 17,20 a9,9 0,0,1 -15,18 a20,20 0,0,1 -27,2 a9,9 0,0,1 -20,-15"/>
	</g>
	
	<use xlink:href="#Cay1" x="220" />
	<use xlink:href="#Cay2" x="300" />
	<use xlink:href="#Cay1" x="540" />
	<use xlink:href="#Cay1" x="705" />
	<use xlink:href="#Cay2" x="700" />
	<use xlink:href="#Cay2" x="870" />
	
	<rect fill="#d5dede" x="0" y="264" width="1100" height="4"/>
	<rect fill="#95a5a6" x="0" y="267" width="1100" height="10"/>
	
	<path fill="#575757" stroke="white" stroke-width="1" d="M0,275 h1020 v55 c0 60, -10 65, -25 67 h-950 c-30 0, -45 0, -44 -30  " />
	<path fill="green" stroke="white" stroke-width="3" stroke-dasharray="20,20" d="M20,358 h1000" />
	<path fill="green" stroke="orange" stroke-width="3" d="M0,330 h1020" />
	<path fill="green" stroke="white" stroke-width="3" stroke-dasharray="20,20" d="M20,300 h1000" />
	
	
	<g id="Oto4c1" transform="translate(180,250) scale(-0.5,0.5)">
		<path fill="#6fbf06" stroke="none" d="M5,25 c1 -5, 5 -5,13 -6 c6 -10, 8 -10, 12  -14 c10 -4,10 -4,35 -3 c8 1,10 3,27 20 c10 0,20 5,22 10 v14 h-19 a10,10 1,0,0 -24,0 h-28 a10,10 1,0,0 -24,0 h-15 v-20"/>
	
		<path fill="#2e2e2b" d="M35,22 c0 -5, -5 -13, 18 -15 l2,15"/>
		<path fill="#2e2e2b" d="M59,22 l-2,-15 c9 0, 17 0, 25 15	"/>
		
		<g id="Oto4c1_BanhXe">
			<circle cx="31" cy="45" r="10.5" fill="#2e2e2b"/>
			<circle cx="31" cy="45" r="6.5" fill="#a7a79d"/>
			<circle cx="31" cy="45" r="2" fill="#707068"/>
		</g>
		<use xlink:href="#Oto4c1_BanhXe" x="52" y="0" />
		<path fill="#ffefbd" d="M100,28 s10,-3 10,5 l-8,-2"/>
		
		<g>
			<path id="Tim1" d="M-50,-7 s-30,-30 -25,-40 a12,12 0,0,1 25,0 a12,12 0,0,1 25,0 s6,10 -25,40" fill="white" stroke="green"/>
			<use xlink:href="#Tim1" x="10" y="-3" transform="scale(0.4,0.4)" />
			<text x="-65" y="-30" font-size="15" fill="green"  style="font-weight:bold;">1055</text>
			<animateTransform 
			 attributeType="xml" 
			 attributeName="transform" 
			 type="scale"
			 begin="0s"
			 dur='2s'
			 values="-1.2,1.2;-0.8,0.8;-1.2,1.2"
			 repeatCount="indefinite"
			 />
		</g>
		<use xlink:href="#Tim1" x="380" y="10" transform="scale(0.2,0.2)" />
	</g>
	<use xlink:href="#Oto4c1" x="700"/>
	
	
	<g id="Oto4c5" transform="translate(1200,260) scale(-0.8,0.8)">
		<path fill="#6fbf06" stroke="none" d="M5,25 c1 -5, 5 -5,13 -6 c6 -10, 8 -10, 12  -14 c10 -4,10 -4,35 -3 c8 1,10 3,27 20 c10 0,20 5,22 10 v14 h-19 a10,10 1,0,0 -24,0 h-28 a10,10 1,0,0 -24,0 h-15 v-20"/>
	
		<path fill="#2e2e2b" d="M35,22 c0 -5, -5 -13, 18 -15 l2,15"/>
		<path fill="#2e2e2b" d="M59,22 l-2,-15 c9 0, 17 0, 25 15	"/>
		
		<g id="Oto4c5_BanhXe">
			<circle cx="31" cy="45" r="10.5" fill="#2e2e2b"/>
			<circle cx="31" cy="45" r="6.5" fill="#a7a79d"/>
			<circle cx="31" cy="45" r="2" fill="#707068"/>
		</g>
		<use xlink:href="#Oto4c5_BanhXe" x="52" y="0" />
		<path fill="#ffefbd" d="M100,28 s10,-3 10,5 l-8,-2"/>
		<g>
			<path id="Tim1" d="M-50,-7 s-30,-30 -25,-40 a12,12 0,0,1 25,0 a12,12 0,0,1 25,0 s6,10 -25,40" fill="white" stroke="green"/>
			<use xlink:href="#Tim1" x="10" y="-3" transform="scale(0.4,0.4)" />
			<text x="-65" y="-30" font-size="15" fill="green"  style="font-weight:bold;">1055</text>
			<animateTransform 
			 attributeType="xml" 
			 attributeName="transform" 
			 type="scale"
			 begin="0s"
			 dur='2s'
			 values="-1.2,1.2;-0.8,0.8;-1.2,1.2"
			 repeatCount="indefinite"
			 />
		</g>
		<use xlink:href="#Tim1" x="380" y="10" transform="scale(0.2,0.2)" />
		<animateTransform
		  attributeType="xml" 
		  attributeName="transform"
		  type="translate"
		  begin="0s"
		  dur="25s"
		  values="1200,260; 650,260;650,260;-200,260"
		  repeatCount="indefinite" />
	   <animateTransform 
		 attributeType="xml" 
		 attributeName="transform" 
		 type="scale"
		 begin="0s"
		 dur='25s'
		 values="-0.6,0.6;-0.6,0.6"
		 repeatCount="indefinite"
		  additive="sum"/>
	</g>
	
	<g id="GiaCuoc_BongBong">
		<circle cx="57" cy="283" r="4" stroke="none" stroke-width="0" fill="green" />
		<line x1="57" y1="280" x2="57" y2="122" stroke="green" stroke-width="1" fill="none" />
		<path d="M57,122 C80 95 ,80 90, 78 80 C70 56,44 56,36 80 C34 90 ,34 97, 57 122" stroke="none" stroke-width="1" fill="green" />
	</g>
	
	<text x="40" y="95" font-size="12" fill="white" style="font-weight:bold;">CẢM</text>
	
	<circle cx="57" cy="283" r="4" stroke="none" stroke-width="0" fill="green" transform="translate(195,0)"/>
	<line x1="57" y1="280" x2="57" y2="102" stroke="green" stroke-width="1" fill="none"  transform="translate(195,0)"/>
	<path d="M57,122 C80 95 ,80 90, 78 80 C70 56,44 56,36 80 C34 90 ,34 97, 57 122" stroke="none" stroke-width="1" fill="green"  transform="translate(195,-20)"/>
	<text x="242" y="78" font-size="12" fill="white" style="font-weight:bold;">ƠN</text>
	
	<use xlink:href="#GiaCuoc_BongBong" x="775" y="0" id="222"/>
	
	<use xlink:href="#222" x="-100" y="0" id="2222"/>
	<text x="718" y="92" font-size="12" fill="white" style="font-weight:bold;">QUÝ</text>
	<text x="809" y="92" font-size="12" fill="white" style="font-weight:bold;">KHÁCH</text>
	
	
	<g id="XeTai1" transform="translate(200,275) scale(0.6,0.6)">
		<rect fill="#fae868" stroke="none" x="7" y="4" rx="3" ry="2" width="96" height="56"/>
		<path fill="#5493fc" stroke="none" d="M109,18 h18 c2 0,2 0, 4 2 l18,18 l13,-0.5 c2 0, 5 2,6 7 l-1,17 h-57"/>
		
		<path fill="#2e2e2b" d="M114,23 h11 c3 0,3 0, 6 3 l12,12 c1 1, 2 2, -1 2 h-28"/>
		<rect x="2" y="60" width="172" height="7" fill="#9c9c92" rx="3" ry="3"/>
		<rect x="165" y="49" fill="#fae868" rx="3" ry="3" width="5" height="9"/>
		<rect x="165" y="47" width="3" height="12" fill="#9c9c92"/>
		
		<rect id="XeTai_SocKe" x="10" y="8" width="90" height="6" fill="#9c9c92" rx="3" ry="3" style="opacity:0.1;"/>
		
		<use xlink:href="#XeTai_SocKe" x="0" y="10" />
		<use xlink:href="#XeTai_SocKe" x="0" y="20" />
		<use xlink:href="#XeTai_SocKe" x="0" y="30" />
		
		
		<g id="XeTai1_BanhXe">
			<circle cx="32" cy="68" r="13" fill="#2e2e2b"/>
			<circle cx="32" cy="68" r="7.5" fill="#a7a79d"/>
			<circle cx="32" cy="68" r="2" fill="#707068"/>
		</g>
		<use xlink:href="#XeTai1_BanhXe" x="47" y="0" />
		<use xlink:href="#XeTai1_BanhXe" x="113" y="0" />
	</g>
	
	<g id="OTo7c1" transform="translate(400,255)" x="100" y="320">
		<path fill="#6fbf06" 
		d="M15,63 
		l-3,-2
		c-2 -2, -1 -1 , -2 -3 
		l0,-17 
		c 5 -12, 8 -12 , 12 -15
		l28,0
		c8 0, 12 3 , 22 12
		c10 0, 15 2, 18 8 
		l2,12 l-4 4 l-3 0
		c2 -14, -24 -22, -24,2
		l-23,-1
		c5 -16, -24 -22, -23,0
		"/>
		
		<path fill="#2e2e2b" d="M39,42 l-10,0 c-2 0, -8 0, 0 -11 l8,0	l2,11" />
		
		<path fill="#2e2e2b" d="M46,42 l-2,-11 c9 0, 17 0, 19 10.5"/>
		<path fill="#ffefbd" d="M80,40 s10,-3 10,5 l-8,-2"/>
		
		<g id="OTo7c1_BanhXe">
			<circle cx="27" cy="60" r="10" fill="#2e2e2b"/>
			<circle cx="27" cy="60" r="5" fill="#a7a79d"/>
			<circle cx="27" cy="60" r="2" fill="#707068"/>
		</g>
		<use xlink:href="#OTo7c1_BanhXe" x="46" y="0" />
		
	</g>
	
	
	
	
	<g id="Oto4c3" transform="translate(720,287) scale(0.6,0.6)">
		<path fill="#eb0018" stroke="none" d="M5,25 c1 -5, 5 -5,13 -6 c6 -10, 8 -10, 12  -14 c10 -4,10 -4,35 -3 c8 1,10 3,27 20 c10 0,20 5,22 10 v14 h-19 a10,10 1,0,0 -24,0 h-28 a10,10 1,0,0 -24,0 h-15 v-20"/>
	
		<path fill="#2e2e2b" d="M35,22 c0 -5, -5 -13, 18 -15 l2,15"/>
		<path fill="#2e2e2b" d="M59,22 l-2,-15 c9 0, 17 0, 25 15	"/>
		
		<g id="Oto4c3_BanhXe">
			<circle cx="31" cy="45" r="10.5" fill="#2e2e2b"/>
			<circle cx="31" cy="45" r="6.5" fill="#a7a79d"/>
			<circle cx="31" cy="45" r="2" fill="#707068"/>
		</g>
		<use xlink:href="#Oto4c3_BanhXe" x="52" y="0" />
		<path fill="#ffefbd" d="M100,28 s10,-3 10,5 l-8,-2"/>
		
	</g>
	
	
	
	
	<g id="Oto4c2" transform="translate(220,310) scale(-0.7,0.7)">
		<path fill="orange" stroke="none" d="M5,25 c1 -5, 5 -5,13 -6 c6 -10, 8 -10, 12  -14 c10 -4,10 -4,35 -3 c8 1,10 3,27 20 c10 0,20 5,22 10 v14 h-19 a10,10 1,0,0 -24,0 h-28 a10,10 1,0,0 -24,0 h-15 v-20"/>
	
		<path fill="#2e2e2b" d="M35,22 c0 -5, -5 -13, 18 -15 l2,15"/>
		<path fill="#2e2e2b" d="M59,22 l-2,-15 c9 0, 17 0, 25 15"/>
		
		<g id="Oto4c2_BanhXe">
			<circle cx="31" cy="45" r="10.5" fill="#2e2e2b"/>
			<circle cx="31" cy="45" r="6.5" fill="#a7a79d"/>
			<circle cx="31" cy="45" r="2" fill="#707068"/>
		</g>
		<use xlink:href="#Oto4c2_BanhXe" x="52" y="0" />
		<path fill="#ffefbd" d="M100,28 s10,-3 10,5 l-8,-2"/>
	</g>
	
	
	<g id="Oto4c4" transform="translate(360,310) scale(-0.7,0.7)">
		<path fill="#cf7aff" stroke="none" d="M5,25 c1 -5, 5 -5,13 -6 c6 -10, 8 -10, 12  -14 c10 -4,10 -4,35 -3 c8 1,10 3,27 20 c10 0,20 5,22 10 v14 h-19 a10,10 1,0,0 -24,0 h-28 a10,10 1,0,0 -24,0 h-15 v-20"/>
		<path fill="#2e2e2b" d="M35,22 c0 -5, -5 -13, 18 -15 l2,15"/>
		<path fill="#2e2e2b" d="M59,22 l-2,-15 c9 0, 17 0, 25 15	"/>
		
		<g id="Oto4c4_BanhXe">
			<circle cx="31" cy="45" r="10.5" fill="#2e2e2b"/>
			<circle cx="31" cy="45" r="6.5" fill="#a7a79d"/>
			<circle cx="31" cy="45" r="2" fill="#707068"/>
		</g>
		<use xlink:href="#Oto4c4_BanhXe" x="52" y="0" />
		<path fill="#ffefbd" d="M100,28 s10,-3 10,5 l-8,-2"/>
	</g>
	
	
	
	
	<g id="XeTai2" transform="translate(950,300) scale(-0.7,0.7)">
		<rect fill="#fae868" stroke="none" x="7" y="4" rx="3" ry="2" width="96" height="56"/>
		<path fill="#5493fc" stroke="none" d="M109,18 h18 c2 0,2 0, 4 2 l18,18 l13,-0.5 c2 0, 5 2,6 7 l-1,17 h-57"/>
		
		<path fill="#2e2e2b" d="M114,23 h11 c3 0,3 0, 6 3 l12,12 c1 1, 2 2, -1 2 h-28"/>
		<rect x="2" y="60" width="172" height="7" fill="#9c9c92" rx="3" ry="3"/>
		<rect x="165" y="49" fill="#fae868" rx="3" ry="3" width="5" height="9"/>
		<rect x="165" y="47" width="3" height="12" fill="#9c9c92"/>
		
		<rect id="XeTai2_SocKe" x="10" y="8" width="90" height="6" fill="#9c9c92" rx="3" ry="3" style="opacity:0.1;"/>
		
		<use xlink:href="#XeTai2_SocKe" x="0" y="10" />
		<use xlink:href="#XeTai2_SocKe" x="0" y="20" />
		<use xlink:href="#XeTai2_SocKe" x="0" y="30" />
		
		
		<g id="XeTai2_BanhXe">
			<circle cx="32" cy="68" r="13" fill="#2e2e2b"/>
			<circle cx="32" cy="68" r="7.5" fill="#a7a79d"/>
			<circle cx="32" cy="68" r="2" fill="#707068"/>
		</g>
		<use xlink:href="#XeTai2_BanhXe" x="47" y="0" />
		<use xlink:href="#XeTai2_BanhXe" x="113" y="0" />
	</g>
	
	<g id="Oto4c3_2" transform="translate(-200,346) scale(0.6,0.6)">
		<path fill="#eb0018" stroke="none" d="M5,25 c1 -5, 5 -5,13 -6 c6 -10, 8 -10, 12  -14 c10 -4,10 -4,35 -3 c8 1,10 3,27 20 c10 0,20 5,22 10 v14 h-19 a10,10 1,0,0 -24,0 h-28 a10,10 1,0,0 -24,0 h-15 v-20"/>
	
		<path fill="#2e2e2b" d="M35,22 c0 -5, -5 -13, 18 -15 l2,15"/>
		<path fill="#2e2e2b" d="M59,22 l-2,-15 c9 0, 17 0, 25 15	"/>
		
		<g id="Oto4c3_BanhXe">
			<circle cx="31" cy="45" r="10.5" fill="#2e2e2b"/>
			<circle cx="31" cy="45" r="6.5" fill="#a7a79d"/>
			<circle cx="31" cy="45" r="2" fill="#707068"/>
		</g>
		<use xlink:href="#Oto4c3_BanhXe" x="52" y="0" />
		<path fill="#ffefbd" d="M100,28 s10,-3 10,5 l-8,-2"/>
		<g>
			<path id="Tim1" d="M-50,-7 s-30,-30 -25,-40 a12,12 0,0,1 25,0 a12,12 0,0,1 25,0 s6,10 -25,40" fill="white" stroke="green"/>
			<use xlink:href="#Tim1" x="10" y="-3" transform="scale(0.4,0.4)" />
			<text x="34" y="-30" font-size="15" fill="green"  transform="scale(-1,1)" style="font-weight:bold;">1055</text>
			<animateTransform 
			 attributeType="xml" 
			 attributeName="transform" 
			 type="scale"
			 begin="0s"
			 dur='2s'
			 values="-1.2,1.2;-0.8,0.8;-1.2,1.2"
			 repeatCount="indefinite"
			 />
		</g>
		<use xlink:href="#Tim1" x="380" y="10" transform="scale(0.2,0.2)" />
		<animateTransform
		  attributeType="xml" 
		  attributeName="transform"
		  type="translate"
		  begin="2s"
		  dur="15s"
		  values="-200,346; 200,346;200,346;1200,346"
		  repeatCount="indefinite"/>
	   <animateTransform 
		 attributeType="xml" 
		 attributeName="transform" 
		 type="scale"
		 begin="2s"
		 dur='15s'
		 values="0.75,0.75;0.75,0.75"
		 repeatCount="indefinite"
		  additive="sum"/>
	</g>
	
	
	    <g>
			<path id="Tim1" d="M170,55 s-26,-15 -25,-40 a12,12 0,0,1 25,0 a12,12 0,0,1 25,0 s1,25 -25,40" fill="white" stroke="green" stroke-width="2"/>
			
			<animateTransform 
			 attributeType="xml"
			 attributeName="transform"
			 type="scale"
			 begin="0s"
			 dur='7s'
			 values="2.9,2.9;2.8,2.8;2.9,2.9"
			 repeatCount="indefinite"
			 />
		</g>
		<text x="173" y="40" font-size="23" fill="red" transform="scale(2.5,2.5)" style="font-weight:bold;">1055</text>
	
	<g id="Oto4c1" transform="translate(600,346) scale(0.75,0.75)">
		<ellipse cx="55" cy="55" rx="53" ry="8" fill="rgba(0,0,0,0.2)"/>
		<path fill="#6fbf06" stroke="none" d="M5,25 c1 -5, 5 -5,13 -6 c6 -10, 8 -10, 12  -14 c10 -4,10 -4,35 -3 c8 1,10 3,27 20 c10 0,20 5,22 10 v14 h-19 a10,10 1,0,0 -24,0 h-28 a10,10 1,0,0 -24,0 h-15 v-20"/>
		
		<path fill="#2e2e2b" d="M35,22 c0 -5, -5 -13, 18 -15 l2,15"/>
		<path fill="#2e2e2b" d="M59,22 l-2,-15 c9 0, 17 0, 25 15	"/>
		
		<g id="Oto4c1_BanhXe">
			<circle cx="31" cy="45" r="10.5" fill="#2e2e2b"/>
			<circle cx="31" cy="45" r="6.5" fill="#a7a79d"/>
			<circle cx="31" cy="45" r="2" fill="#707068"/>
		</g>
		<use xlink:href="#Oto4c1_BanhXe" x="52" y="0" />
		<path fill="#ffefbd" d="M100,28 s10,-3 10,5 l-8,-2"/>
		
		<g>
			<path id="Tim1" d="M-50,-7 s-30,-30 -25,-40 a12,12 0,0,1 25,0 a12,12 0,0,1 25,0 s6,10 -25,40" fill="white" stroke="green"/>
			<use xlink:href="#Tim1" x="10" y="-3" transform="scale(0.4,0.4)" />
			<text x="34" y="-30" font-size="15" fill="green"  transform="scale(-1,1)" style="font-weight:bold;">1055</text>
			<animateTransform 
			 attributeType="xml" 
			 attributeName="transform" 
			 type="scale"
			 begin="0s"
			 dur='2s'
			 values="-1.2,1.2;-0.8,0.8;-1.2,1.2"
			 repeatCount="indefinite"
			 />
		</g>
		<use xlink:href="#Tim1" x="380" y="10" transform="scale(0.2,0.2)" />
		<animateTransform
		  attributeType="xml" 
		  attributeName="transform"
		  type="translate"
		  dur="15s"
		  values="-200,346; 400,346;400,346;1200,346"
		  repeatCount="indefinite"/>
	   <animateTransform 
		 attributeType="xml" 
		 attributeName="transform" 
		 type="scale"
		 dur='15s'
		 values="0.75,0.75;0.75,0.75"
		 repeatCount="indefinite"
		  additive="sum"/>
	</g>
	
	
	
	
</svg>