<?xml version="1.0" encoding="utf-8"?>
<svg version="1.1" xmlns="http://www.w3.org/2000/svg" xmlns:xlink="http://www.w3.org/1999/xlink"  x="0" y="0" width="750" height="315" viewbox = "0 0 750 315">	
		
	<g transform="translate(-120,18) scale(1.8,1.8)">
		<path fill-rule="evenodd" clip-rule="evenodd" fill="#FFFFFF" d="M48,153.98C48,102.987,48,51.994,48,1
			c118.985,0,237.97,0,356.955,0c0,50.994,0,101.987,0,152.98C285.97,153.98,166.985,153.98,48,153.98z M119.191,64.018
			c-11.196,0-21.839-0.168-32.474,0.066c-5.923,0.132-8.704,3.255-8.864,9.232c-0.133,4.995,0.014,9.995-0.033,14.993
			c-0.042,4.557,2.289,7.763,6.595,7.955c9.606,0.429,19.252,0.298,28.87,0.001c3.763-0.116,6.061-2.891,6.343-6.605
			c0.31-4.077,0.07-8.197,0.07-12.303c-7.464,0-14.363,0-21.547,0c0.107,2.11,0.195,3.836,0.303,5.975c4.34,0,8.117,0,11.807,0
			c1.333,4.181-0.189,5.736-3.933,5.664c-2.832-0.057-5.664-0.008-8.496-0.008c-11.072,0-10.86-0.004-11.121-11.115
			c-0.107-4.59,1.229-6.156,5.899-5.978c8.776,0.333,17.574,0.096,26.58,0.096C119.191,69.162,119.191,66.882,119.191,64.018z
			 M145.421,64.005c-4.497,0-9.016-0.28-13.484,0.071c-5.43,0.428-7.998,3.411-8.103,8.816c-0.098,4.998-0.088,9.999-0.004,14.997
			c0.094,5.563,2.396,8.603,7.991,8.856c9.136,0.414,18.32,0.411,27.455-0.023c5.541-0.263,7.746-3.266,7.86-8.973
			c0.101-4.997,0.112-10-0.008-14.996c-0.129-5.369-2.777-8.313-8.221-8.697C154.433,63.742,149.918,63.993,145.421,64.005z
			 M289.718,89.118c-8.628,0-17.02,0-25.48,0c0-2.007,0-3.416,0-5.317c7.992,0,15.745,0,23.818,0c0-2.372,0-4.248,0-6.609
			c-8.076,0-15.835,0-23.828,0c0-2.064,0-3.644,0-5.832c8.542,0,16.94,0,25.52,0c0-2.689,0-4.771,0-6.96
			c-12.064,0-23.907,0-35.652,0c0,10.995,0,21.58,0,32.318c12.033,0,23.763,0,35.623,0
			C289.718,94.198,289.718,91.951,289.718,89.118z M221.678,81.815c-5.654,4.831-11.039,9.432-16.604,14.186
			c10.761,3.88,17.356-1.362,23.108-9.436c5.531,8.846,12.217,12.82,22.732,9.444c-5.553-5.342-10.753-10.344-15.969-15.36
			c5.084-5.551,9.827-10.732,14.408-15.736c-10.406-4.126-16.271,1.869-21.697,9.767c-5.157-8.575-11.432-13.31-21.514-9.913
			C210.916,70.006,215.583,75.128,221.678,81.815z M171.158,96.645c3.582,0,6.641,0,9.635,0c0-11.021,0-21.696,0-32.308
			c-3.431,0-6.483,0-9.635,0C171.158,75.241,171.158,85.8,171.158,96.645z M149.481,105.031c0-1.707,0-3.233,0-4.878
			c-2.843,0-5.368,0-8.287,0c0.098,1.89,0.176,3.409,0.271,5.262c1.988,0,3.454,0.043,4.915-0.015
			C147.335,105.362,148.283,105.18,149.481,105.031z"/>
		<path fill-rule="evenodd" fill="green" clip-rule="evenodd" d="M119.191,64.018c0,2.864,0,5.144,0,7.973c-9.006,0-17.804,0.237-26.58-0.096
			c-4.671-0.178-6.007,1.388-5.899,5.978c0.261,11.111,0.049,11.115,11.121,11.115c2.832,0,5.665-0.049,8.496,0.008
			c3.744,0.072,5.267-1.483,3.933-5.664c-3.69,0-7.467,0-11.807,0c-0.108-2.139-0.196-3.864-0.303-5.975c7.184,0,14.083,0,21.547,0
			c0,4.105,0.239,8.226-0.07,12.303c-0.282,3.715-2.58,6.489-6.343,6.605c-9.618,0.297-19.264,0.428-28.87-0.001
			c-4.307-0.192-6.638-3.398-6.595-7.955c0.047-4.998-0.1-9.998,0.033-14.993c0.16-5.978,2.941-9.101,8.864-9.232
			C97.352,63.85,107.995,64.018,119.191,64.018z"/>
		<path fill-rule="evenodd" fill="green" clip-rule="evenodd" d="M145.421,64c4.497-0.007,9.011-0.257,13.486,0.058
			c5.444,0.385,8.092,3.328,8.221,8.697c0.12,4.996,0.108,9.999,0.008,14.996c-0.115,5.707-2.319,8.71-7.86,8.973
			c-9.135,0.435-18.318,0.438-27.455,0.023c-5.595-0.254-7.897-3.294-7.991-8.856c-0.084-4.998-0.094-9.999,0.004-14.997
			c0.105-5.405,2.673-8.389,8.103-8.816C136.405,63.726,140.924,64.005,145.421,64z M145.407,88.988
			c13.002,0,13.002,0,12.579-13.025c-0.005-0.166-0.021-0.335,0-0.499c0.372-2.962-1.203-3.724-3.847-3.679
			c-5.663,0.096-11.33,0.11-16.992-0.004c-2.922-0.06-4.076,0.985-4.219,4.043C132.311,88.992,132.224,88.988,145.407,88.988z"/>
		<path fill-rule="evenodd" fill="green" clip-rule="evenodd" d="M289.718,89.118c0,2.833,0,5.08,0,7.599c-11.86,0-23.59,0-35.623,0
			c0-10.738,0-21.323,0-32.318c11.745,0,23.588,0,35.652,0c0,2.189,0,4.271,0,6.96c-8.579,0-16.978,0-25.52,0
			c0,2.188,0,3.768,0,5.832c7.993,0,15.752,0,23.828,0c0,2.361,0,4.237,0,6.609c-8.073,0-15.826,0-23.818,0c0,1.901,0,3.311,0,5.317
			C272.698,89.118,281.09,89.118,289.718,89.118z"/>
		<path fill-rule="evenodd" fill="green" clip-rule="evenodd" d="M221.678,81.815c-6.094-6.687-10.762-11.81-15.536-17.048
			c10.082-3.397,16.357,1.338,21.514,9.913c5.426-7.897,11.291-13.893,21.697-9.767c-4.581,5.003-9.324,10.185-14.408,15.736
			c5.216,5.017,10.416,10.019,15.969,15.36c-10.516,3.376-17.201-0.599-22.732-9.444c-5.752,8.073-12.348,13.315-23.108,9.436
			C210.639,91.247,216.023,86.646,221.678,81.815z"/>
		<path fill-rule="evenodd" fill="green" clip-rule="evenodd" d="M171.158,96.645c0-10.845,0-21.404,0-32.308c3.152,0,6.204,0,9.635,0
			c0,10.612,0,21.287,0,32.308C177.799,96.645,174.74,96.645,171.158,96.645z"/>
		<path fill-rule="evenodd" fill="green" clip-rule="evenodd" d="M149.481,105.031c-1.199,0.148-2.146,0.331-3.1,0.369
			c-1.461,0.058-2.927,0.015-4.915,0.015c-0.096-1.853-0.174-3.372-0.271-5.262c2.918,0,5.444,0,8.287,0
			C149.481,101.798,149.481,103.324,149.481,105.031z"/>
		<path fill-rule="evenodd" clip-rule="evenodd" fill="#FFFFFF" d="M145.407,88.988c-13.183,0-13.096,0.004-12.479-13.164
			c0.143-3.058,1.297-4.103,4.219-4.043c5.662,0.114,11.329,0.1,16.992,0.004c2.644-0.045,4.219,0.717,3.847,3.679
			c-0.021,0.164-0.005,0.333,0,0.499C158.409,88.988,158.409,88.988,145.407,88.988z"/>
	</g>
	
	
	<g id="Calling" transform="translate(425,0)">
		<g transform-origin="167.5 157.5">
			<circle cx="167.5" cy="157.5" r="135"  stroke="none" stroke-width="1" fill="#008403"/>
			<animateTransform 
			 attributeType="xml" 
			 attributeName="transform" 
			 type="scale"
			 begin="0s"
			 dur='3'
			 values="1,1;1.1,1.1;1,1;1,1;1,1"
			 repeatCount="indefinite"
			  additive="sum"/>
		</g>
		<g transform-origin="167.5 157.5">
			<circle id="BgRing" cx="167.5" cy="157.5" r="0.2"  stroke="0" stroke-width="0" fill="#006600"/>
			<animateTransform 
			 attributeType="xml" 
			 attributeName="transform" 
			 type="scale"
			 begin="0s"
			 dur='3'
			 values="1,1;600,600;1,1;1,1;1,1"
			 repeatCount="indefinite"
			  additive="sum"/>
		</g>
		
		
		<g>
			<path id="Phone" d="M114,111 l10,-10 a9,9 0,0,1 12,0 c5 3, 9 8 , 14 17 a15,15 0,0,1 -5,16 l-4,5 a9,9 1,0,0 1,5 a90,90 1,0,0 44,44 s5,1 6,-1 l6,-6 a12,12 0,0,1 16,0 l13,10 a12,12 0,0,1 -1,16 l-8,8 a12,12 0,0,1 -12,4 a120,120 0,0,1 -95,-90 a19,19 0,0,1 3,-18" fill="white"/>
			<animateTransform
			  attributeType="xml" 
			  attributeName="transform"
			  type="translate"
			  begin="0.3s"
			  dur="3s"
			  values="20,0;-20,0;20,0;-20,0;20,0;-20,0;20,0;-20,0;20,0;-20,0;0,0;0,0;0,0;0,0;0,0;0,0;0,0;0,0;0,0;0,0;0,0;0,0;0,0;0,0;0,0;0,0;0,0;0,0;0,0;0,0;0,0;0,0;0,0;0,0;0,0;0,0;0,0;0,0;0,0;0,0;0,0;0,0;0,0;0,0;0,0;0,0;0,0;0,0;0,0;0,0;0,0;0,0;0,0;0,0;0,0;0,0;0,0"
			  repeatCount="indefinite" />
		</g>
	</g>
</svg>